<svg width="129" height="134" viewBox="0 0 129 134" fill="none" xmlns="http://www.w3.org/2000/svg">
<path d="M127.648 34.6759L101.473 1.31935C100.816 0.487586 99.8458 0 98.7897 0H30.055C28.9989 0 27.9998 0.487586 27.3719 1.31935L1.19674 34.6759C0.711489 35.2783 0.45459 36.024 0.45459 36.7984V130.558C0.45459 132.451 1.99598 134 3.8799 134H124.936C126.82 134 128.362 132.451 128.362 130.558V36.7984C128.39 36.024 128.133 35.2783 127.648 34.6759ZM118.342 33.9302H67.8476V6.88356H97.1341L118.342 33.9302ZM31.7106 6.88356H60.997V33.9302H10.5022L31.7106 6.88356ZM7.30522 127.116V40.8138H121.511V127.116H7.30522Z" fill="#9CED74"/>
</svg>